<svg xmlns="http://www.w3.org/2000/svg" viewBox="0 0 1400 500"><defs><linearGradient id="a"><stop stop-color="#e9d4b8"/><stop offset="1" stop-color="#c89e82"/></linearGradient></defs><rect width="1400" height="500" fill="url(#a)"/><circle cx="1120" cy="115" r="72" fill="#e96a57" opacity=".7"/><path d="M0 385h1400v115H0Z" fill="#786257"/><path d="M0 335h1400v24H0Z" fill="#584b46"/><g fill="#493f3b"><rect x="160" y="110" width="18" height="275"/><rect x="440" y="85" width="18" height="300"/><rect x="760" y="85" width="18" height="300"/><rect x="1090" y="110" width="18" height="275"/></g><path d="M140 115h1020l-64-55H210Z" fill="#5b514a"/><rect x="795" y="180" width="430" height="140" rx="24" fill="#cfc5b4"/><rect x="825" y="211" width="82" height="60" rx="10" fill="#344a5a"/><rect x="930" y="211" width="82" height="60" rx="10" fill="#344a5a"/><rect x="1035" y="211" width="82" height="60" rx="10" fill="#344a5a"/><path d="M820 320h390l-30 40H850Z" fill="#292d33"/><g fill="#f1a9b8"><circle cx="240" cy="160" r="18"/><circle cx="310" cy="120" r="13"/><circle cx="1260" cy="150" r="18"/></g></svg>