<svg xmlns="http://www.w3.org/2000/svg" viewBox="0 0 600 1200"><defs><linearGradient id="g" x2="0" y2="1"><stop stop-color="#1b2136"/><stop offset=".48" stop-color="#381f2c"/><stop offset="1" stop-color="#07111d"/></linearGradient><radialGradient id="l"><stop stop-color="#ffd39a"/><stop offset="1" stop-color="#ff6f55" stop-opacity="0"/></radialGradient></defs><rect width="600" height="1200" fill="url(#g)"/><circle cx="105" cy="330" r="150" fill="url(#l)" opacity=".36"/><circle cx="465" cy="610" r="180" fill="url(#l)" opacity=".22"/><g fill="#101722"><path d="M0 490 210 360v840H0Z"/><path d="M600 420 375 320v880h225Z"/></g><g fill="#bd4738"><rect x="70" y="510" width="46" height="95" rx="8"/><rect x="456" y="650" width="42" height="92" rx="8"/></g><g fill="#f6d18f"><rect x="78" y="524" width="30" height="58" rx="4"/><rect x="463" y="665" width="28" height="54" rx="4"/></g><path d="M0 855c160-65 290-58 600 12v333H0Z" fill="#08111c"/><path d="M0 945c170-30 385-25 600 22" stroke="#8e504a" stroke-width="7" opacity=".45"/><g stroke="#22121b" stroke-width="13" fill="none"><path d="M0 155c140 32 230 65 332 140"/><path d="M600 122c-126 45-205 75-292 165"/></g><g fill="#f0a0b4"><circle cx="70" cy="174" r="14"/><circle cx="139" cy="198" r="18"/><circle cx="210" cy="230" r="13"/><circle cx="528" cy="151" r="17"/><circle cx="472" cy="180" r="13"/><circle cx="404" cy="219" r="18"/></g></svg>